<svg width="116" height="40" viewBox="0 0 116 40" fill="none" xmlns="http://www.w3.org/2000/svg">
<g clip-path="url(#clip0_50331_13)" filter="url(#filter0_d_50331_13)">
<path d="M17.2 2.68001H22.36L34.68 31H27.64L25.2 25H14.2L11.84 31H4.96002L17.2 2.68001ZM19.6 10.92L16.16 19.72H23.08L19.6 10.92ZM36.8484 0.76001H42.8484V31H36.8484V0.76001ZM47.2391 11.56H53.2391V31H47.2391V11.56ZM46.7591 5.44001C46.7591 4.48001 47.0924 3.66668 47.7591 3.00001C48.4524 2.30668 49.2791 1.96001 50.2391 1.96001C51.1991 1.96001 52.0124 2.30668 52.6791 3.00001C53.3724 3.66668 53.7191 4.48001 53.7191 5.44001C53.7191 6.40001 53.3724 7.22668 52.6791 7.92001C52.0124 8.58668 51.1991 8.92001 50.2391 8.92001C49.2791 8.92001 48.4524 8.58668 47.7591 7.92001C47.0924 7.22668 46.7591 6.40001 46.7591 5.44001ZM55.5097 11.56H61.9897L66.9097 24.76H66.9897L71.5497 11.56H77.5897L69.9097 31H63.5497L55.5097 11.56ZM79.8563 11.56H85.8563V31H79.8563V11.56ZM79.3763 5.44001C79.3763 4.48001 79.7096 3.66668 80.3763 3.00001C81.0696 2.30668 81.8963 1.96001 82.8563 1.96001C83.8163 1.96001 84.6296 2.30668 85.2963 3.00001C85.9896 3.66668 86.3363 4.48001 86.3363 5.44001C86.3363 6.40001 85.9896 7.22668 85.2963 7.92001C84.6296 8.58668 83.8163 8.92001 82.8563 8.92001C81.8963 8.92001 81.0696 8.58668 80.3763 7.92001C79.7096 7.22668 79.3763 6.40001 79.3763 5.44001ZM89.4469 21.28C89.4469 19.7333 89.7269 18.3333 90.2869 17.08C90.8469 15.8267 91.6069 14.76 92.5669 13.88C93.5535 12.9733 94.7002 12.28 96.0069 11.8C97.3402 11.32 98.7535 11.08 100.247 11.08C101.74 11.08 103.14 11.32 104.447 11.8C105.78 12.28 106.927 12.9733 107.887 13.88C108.874 14.76 109.647 15.8267 110.207 17.08C110.767 18.3333 111.047 19.7333 111.047 21.28C111.047 22.8267 110.767 24.2267 110.207 25.48C109.647 26.7333 108.874 27.8133 107.887 28.72C106.927 29.6 105.78 30.28 104.447 30.76C103.14 31.24 101.74 31.48 100.247 31.48C98.7535 31.48 97.3402 31.24 96.0069 30.76C94.7002 30.28 93.5535 29.6 92.5669 28.72C91.6069 27.8133 90.8469 26.7333 90.2869 25.48C89.7269 24.2267 89.4469 22.8267 89.4469 21.28ZM95.4469 21.28C95.4469 22.7467 95.8602 23.9333 96.6869 24.84C97.5402 25.7467 98.7269 26.2 100.247 26.2C101.767 26.2 102.94 25.7467 103.767 24.84C104.62 23.9333 105.047 22.7467 105.047 21.28C105.047 19.8133 104.62 18.6267 103.767 17.72C102.94 16.8133 101.767 16.36 100.247 16.36C98.7269 16.36 97.5402 16.8133 96.6869 17.72C95.8602 18.6267 95.4469 19.8133 95.4469 21.28Z" fill="white"/>
</g>
<defs>
<filter id="filter0_d_50331_13" x="0" y="0" width="116" height="40" filterUnits="userSpaceOnUse" color-interpolation-filters="sRGB">
<feFlood flood-opacity="0" result="BackgroundImageFix"/>
<feColorMatrix in="SourceAlpha" type="matrix" values="0 0 0 0 0 0 0 0 0 0 0 0 0 0 0 0 0 0 127 0" result="hardAlpha"/>
<feOffset dy="4"/>
<feGaussianBlur stdDeviation="2"/>
<feComposite in2="hardAlpha" operator="out"/>
<feColorMatrix type="matrix" values="0 0 0 0 0 0 0 0 0 0 0 0 0 0 0 0 0 0 0.25 0"/>
<feBlend mode="normal" in2="BackgroundImageFix" result="effect1_dropShadow_50331_13"/>
<feBlend mode="normal" in="SourceGraphic" in2="effect1_dropShadow_50331_13" result="shape"/>
</filter>
<clipPath id="clip0_50331_13">
<rect width="108" height="32" fill="white" transform="translate(4)"/>
</clipPath>
</defs>
</svg>
